<?xml version="1.0" encoding="UTF-8" standalone="no"?>
<!-- Created with Inkscape (http://www.inkscape.org/) -->

<svg
   xmlns:dc="http://purl.org/dc/elements/1.1/"
   xmlns:cc="http://creativecommons.org/ns#"
   xmlns:rdf="http://www.w3.org/1999/02/22-rdf-syntax-ns#"
   xmlns:svg="http://www.w3.org/2000/svg"
   xmlns="http://www.w3.org/2000/svg"
   xmlns:sodipodi="http://sodipodi.sourceforge.net/DTD/sodipodi-0.dtd"
   xmlns:inkscape="http://www.inkscape.org/namespaces/inkscape"
   width="210mm"
   height="297mm"
   viewBox="0 0 210 297"
   version="1.1"
   id="svg8"
   inkscape:version="0.92.5 (2060ec1f9f, 2020-04-08)"
   sodipodi:docname="drawing.svg">
  <defs
     id="defs2" />
  <sodipodi:namedview
     id="base"
     pagecolor="#ffffff"
     bordercolor="#666666"
     borderopacity="1.0"
     inkscape:pageopacity="0.0"
     inkscape:pageshadow="2"
     inkscape:zoom="0.49497475"
     inkscape:cx="3.8579041"
     inkscape:cy="599.78722"
     inkscape:document-units="mm"
     inkscape:current-layer="layer1"
     showgrid="false"
     inkscape:window-width="1360"
     inkscape:window-height="707"
     inkscape:window-x="1870"
     inkscape:window-y="1110"
     inkscape:window-maximized="1" />
  <metadata
     id="metadata5">
    <rdf:RDF>
      <cc:Work
         rdf:about="">
        <dc:format>image/svg+xml</dc:format>
        <dc:type
           rdf:resource="http://purl.org/dc/dcmitype/StillImage" />
        <dc:title></dc:title>
      </cc:Work>
    </rdf:RDF>
  </metadata>
  <g
     inkscape:label="Layer 1"
     inkscape:groupmode="layer"
     id="layer1">
    <g
       aria-label="IMG 404"
       transform="matrix(0.66764194,0,0,1.151697,-42.887567,-610.13504)"
       style="font-style:normal;font-weight:normal;font-size:40px;line-height:1.25;font-family:sans-serif;letter-spacing:0px;word-spacing:0px;fill:#000000;fill-opacity:1;stroke:none;stroke-width:0.30173212"
       id="flowRoot1534" />
    <text
       xml:space="preserve"
       style="font-style:normal;font-weight:normal;font-size:10.58333302px;line-height:1.25;font-family:sans-serif;letter-spacing:0px;word-spacing:0px;fill:#000000;fill-opacity:1;stroke:none;stroke-width:0.26458332"
       x="159.82718"
       y="58.061043"
       id="text1550"><tspan
         sodipodi:role="line"
         id="tspan1548"
         x="159.82718"
         y="58.061043"
         style="stroke-width:0.26458332"> </tspan></text>
    <g
       id="g1628">
      <g
         style="stroke-width:0.91934609"
         transform="matrix(1.2101052,0,0.01555805,0.9777297,-10.071342,93.029634)"
         id="g1532">
        <path
           style="fill:#0063ff;fill-opacity:1;stroke:#0063ff;stroke-width:1.83869219;stroke-linecap:round;stroke-linejoin:round;stroke-miterlimit:4;stroke-dasharray:none;stroke-opacity:1"
           d="m 72.371721,31.693716 34.140849,63.979517 -67.882271,0.0214 z"
           id="rect815-3-6"
           inkscape:connector-curvature="0"
           sodipodi:nodetypes="cccc" />
        <path
           style="fill:#0063ff;fill-opacity:1;stroke:#0063ff;stroke-width:1.83869219;stroke-linecap:round;stroke-linejoin:round;stroke-miterlimit:4;stroke-dasharray:none;stroke-opacity:1"
           d="m 93.611889,44.24025 34.140851,51.154849 -67.882272,0.01711 z"
           id="rect815-3-6-9"
           inkscape:connector-curvature="0"
           sodipodi:nodetypes="cccc" />
        <path
           style="fill:#0063ff;fill-opacity:1;stroke:#0063ff;stroke-width:1.83869207;stroke-linecap:round;stroke-linejoin:round;stroke-miterlimit:4;stroke-dasharray:none;stroke-opacity:1"
           d="m 120.22958,54.931056 29.97379,40.734799 -59.596906,0.01362 z"
           id="rect815-3-6-9-1"
           inkscape:connector-curvature="0"
           sodipodi:nodetypes="cccc" />
      </g>
      <rect
         y="116.3258"
         x="31.019379"
         height="132.03114"
         width="150.20547"
         id="rect1527"
         style="fill:#fff000;fill-opacity:0;stroke:#0063ff;stroke-width:6;stroke-linecap:round;stroke-linejoin:round;stroke-miterlimit:4;stroke-dasharray:none;stroke-opacity:1" />
      <path
         inkscape:connector-curvature="0"
         id="path1552"
         style="font-style:normal;font-weight:bold;font-size:40px;line-height:1.25;font-family:sans-serif;letter-spacing:0px;word-spacing:0px;fill:#0264ff;fill-opacity:1;stroke:none;stroke-width:0.30173212"
         d="m 130.16218,715.67155 h -5.15626 v -17.26573 h 5.15626 z"
         transform="matrix(0.66764194,0,0,1.151697,-42.887567,-610.13504)" />
      <path
         inkscape:connector-curvature="0"
         id="path1554"
         style="font-style:normal;font-weight:bold;font-size:40px;line-height:1.25;font-family:sans-serif;letter-spacing:0px;word-spacing:0px;fill:#0264ff;fill-opacity:1;stroke:none;stroke-width:0.30173212"
         d="m 149.28328,708.29982 q 0.66407,0.81908 1.15235,1.70316 0.27344,-0.45504 0.54687,-0.88408 0.27344,-0.44205 0.60547,-0.84509 l 7.98829,-9.33494 q 0.15625,-0.19502 0.3125,-0.29903 0.17578,-0.11701 0.37109,-0.15602 0.19532,-0.052 0.44922,-0.065 0.25391,-0.013 0.58594,-0.013 h 3.86719 v 17.26573 h -4.51172 v -10.80407 q 0,-0.35104 0.0195,-0.75408 0.0391,-0.41604 0.0977,-0.84508 l -8.1836,9.64697 q -0.60547,0.75408 -1.77735,0.75408 h -0.72265 q -1.19141,0 -1.79688,-0.75408 l -8.28126,-9.69898 q 0.0781,0.44205 0.11719,0.87109 0.0391,0.41604 0.0391,0.78008 v 10.80408 h -4.53125 v -17.26573 h 3.88672 q 0.33203,0 0.56641,0.013 0.25391,0.013 0.44922,0.065 0.21484,0.052 0.37109,0.15602 0.17578,0.10401 0.33203,0.29903 l 8.04688,9.36094 z"
         transform="matrix(0.66764194,0,0,1.151697,-42.887567,-610.13504)" />
      <path
         inkscape:connector-curvature="0"
         id="path1556"
         style="font-style:normal;font-weight:bold;font-size:40px;line-height:1.25;font-family:sans-serif;letter-spacing:0px;word-spacing:0px;fill:#0264ff;fill-opacity:1;stroke:none;stroke-width:0.30173212"
         d="m 191.62706,714.00739 q -1.95312,0.9751 -4.16016,1.41714 -2.20703,0.42904 -4.6875,0.42904 -3.14453,0 -5.70313,-0.65006 -2.53906,-0.66307 -4.35547,-1.83319 -1.81641,-1.18312 -2.8125,-2.79528 -0.97657,-1.62516 -0.97657,-3.54936 0,-1.93719 0.93751,-3.54935 0.9375,-1.62516 2.67578,-2.79528 1.75781,-1.17012 4.21875,-1.82019 2.48047,-0.65006 5.52735,-0.65006 1.58203,0 2.94922,0.16901 1.36719,0.16902 2.53906,0.46805 1.17188,0.29904 2.12891,0.71508 0.97656,0.41604 1.75782,0.92309 l -1.46485,1.53415 q -0.33203,0.36404 -0.89844,0.45505 -0.54687,0.078 -1.1914,-0.18202 -0.60547,-0.24702 -1.21094,-0.45505 -0.60547,-0.22102 -1.3086,-0.37704 -0.68359,-0.16901 -1.52344,-0.26002 -0.83984,-0.091 -1.93359,-0.091 -1.83594,0 -3.30078,0.42904 -1.46485,0.41605 -2.50001,1.18313 -1.03515,0.76707 -1.60156,1.87218 -0.54688,1.09211 -0.54688,2.43124 0,1.45615 0.60547,2.60027 0.60547,1.14412 1.69922,1.93719 1.11329,0.78008 2.67579,1.19612 1.5625,0.40304 3.47656,0.40304 1.28906,0 2.30469,-0.16902 1.03516,-0.18201 2.03125,-0.49405 v -3.0163 h -2.98828 q -0.46875,0 -0.76172,-0.18202 -0.27344,-0.18201 -0.27344,-0.44204 v -1.9242 h 8.67188 z"
         transform="matrix(0.66764194,0,0,1.151697,-42.887567,-610.13504)" />
      <path
         inkscape:connector-curvature="0"
         id="path1560"
         style="font-style:normal;font-weight:bold;font-size:40px;line-height:1.25;font-family:sans-serif;letter-spacing:0px;word-spacing:0px;fill:#f00000;fill-opacity:0;stroke:#0264ff;stroke-width:2.28080988;stroke-miterlimit:4;stroke-dasharray:none;stroke-opacity:1"
         d="m 279.35813,716.50304 q 0,4.31093 -1.34717,7.48219 -1.31075,3.17127 -3.67739,5.2524 -2.33021,2.08115 -5.53431,3.09694 -3.16766,0.99102 -6.88146,0.99102 -3.71379,0 -6.88147,-0.99102 -3.13124,-1.01579 -5.46148,-3.09694 -2.33023,-2.08113 -3.64099,-5.2524 -1.31076,-3.17126 -1.31076,-7.48219 0,-4.31093 1.31076,-7.45742 1.31076,-3.17126 3.64099,-5.22762 2.33024,-2.08114 5.46148,-3.09693 3.16768,-1.0158 6.88147,-1.0158 3.7138,0 6.88146,1.0158 3.2041,1.01579 5.53431,3.09693 2.36664,2.05636 3.67739,5.22762 1.34717,3.14649 1.34717,7.45742 z m -9.06604,0 q 0,-3.51812 -0.72822,-5.79746 -0.69179,-2.30412 -1.85688,-3.642 -1.16513,-1.36265 -2.69437,-1.88293 -1.49279,-0.54506 -3.09482,-0.54506 -1.60204,0 -3.09484,0.54506 -1.45638,0.52028 -2.62151,1.88293 -1.12869,1.33788 -1.8205,3.642 -0.69179,2.27934 -0.69179,5.79746 0,3.54289 0.69179,5.84701 0.69181,2.27935 1.8205,3.642 1.16513,1.33788 2.62151,1.88293 1.4928,0.52029 3.09484,0.52029 1.60203,0 3.09482,-0.52029 1.52924,-0.54505 2.69437,-1.88293 1.16509,-1.36265 1.85688,-3.642 0.72822,-2.30412 0.72822,-5.84701 z"
         transform="matrix(0.66764194,0,0,1.151697,-42.887567,-610.13504)" />
      <ellipse
         ry="6.9619751"
         rx="12.810198"
         cy="645.62653"
         cx="293.24377"
         id="path1608"
         style="font-style:normal;font-weight:normal;font-size:40px;line-height:1.25;font-family:sans-serif;letter-spacing:0px;word-spacing:0px;fill:#0264ff;fill-opacity:1;stroke:#0264ff;stroke-width:2.28080988;stroke-linecap:round;stroke-linejoin:round;stroke-miterlimit:4;stroke-dasharray:none;stroke-opacity:1"
         transform="matrix(0.66764194,0,0,1.151697,-42.887567,-610.13504)" />
      <g
         style="stroke-width:0.79253238"
         transform="matrix(1.2550884,0,0,1.2685035,-28.74992,-50.754647)"
         id="g1591">
        <path
           d="m 139.98561,224.32057 z m 15.2238,-11.35951 h 2.77621 v 3.10418 q 0,0.44987 -0.23589,0.76479 -0.23588,0.31492 -0.65323,0.31492 h -1.88709 v 7.17562 h -3.81049 v -7.17562 h -9.78024 q -0.41734,0 -0.7621,-0.31492 -0.32662,-0.33741 -0.41734,-0.85478 l -0.45363,-2.72178 11.05041,-18.82756 h 4.17339 z m -3.81049,-9.24508 q 0,-0.65233 0.0181,-1.41713 0.0363,-0.7873 0.12701,-1.61957 l -6.94959,12.28178 h 6.80444 z"
           style="font-style:normal;font-weight:bold;font-size:40px;line-height:1.25;font-family:sans-serif;letter-spacing:0px;word-spacing:0px;fill:#fff000;fill-opacity:0;stroke:#0264ff;stroke-width:1.58506477;stroke-linejoin:round;stroke-miterlimit:4;stroke-dasharray:none;stroke-opacity:1"
           id="path1562"
           inkscape:connector-curvature="0" />
        <path
           d="m 95.574498,223.94577 z m 15.223822,-11.35951 h 2.77621 v 3.10418 q 0,0.44987 -0.23589,0.76479 -0.23588,0.31492 -0.65323,0.31492 h -1.88709 v 7.17562 h -3.81049 v -7.17562 h -9.780262 q -0.41734,0 -0.7621,-0.31492 -0.32662,-0.33741 -0.41734,-0.85478 l -0.45363,-2.72178 11.050432,-18.82756 h 4.17339 z m -3.81049,-9.24508 q 0,-0.65233 0.0181,-1.41713 0.0363,-0.7873 0.12701,-1.61957 l -6.94961,12.28178 h 6.80446 z"
           style="font-style:normal;font-weight:bold;font-size:40px;line-height:1.25;font-family:sans-serif;letter-spacing:0px;word-spacing:0px;fill:#fff000;fill-opacity:0;stroke:#0264ff;stroke-width:1.58506477;stroke-linejoin:round;stroke-miterlimit:4;stroke-dasharray:none;stroke-opacity:1"
           id="path1562-3"
           inkscape:connector-curvature="0" />
      </g>
    </g>
  </g>
</svg>
